<?xml version="1.0" encoding="UTF-8" standalone="no"?>
<svg
   fill="#000000"
   viewBox="0 0 50 50"
   width="50px"
   height="50px"
   version="1.1"
   id="svg269"
   sodipodi:docname="icons8-telegram-app.svg"
   inkscape:version="1.1 (c4e8f9ed74, 2021-05-24)"
   xmlns:inkscape="http://www.inkscape.org/namespaces/inkscape"
   xmlns:sodipodi="http://sodipodi.sourceforge.net/DTD/sodipodi-0.dtd"
   xmlns="http://www.w3.org/2000/svg"
   xmlns:svg="http://www.w3.org/2000/svg">
  <defs
     id="defs273" />
  <sodipodi:namedview
     id="namedview271"
     pagecolor="#ffffff"
     bordercolor="#999999"
     borderopacity="1"
     inkscape:pageshadow="0"
     inkscape:pageopacity="0"
     inkscape:pagecheckerboard="0"
     showgrid="false"
     inkscape:zoom="12.679106"
     inkscape:cx="10.371394"
     inkscape:cy="38.33078"
     inkscape:window-width="1920"
     inkscape:window-height="1013"
     inkscape:window-x="0"
     inkscape:window-y="28"
     inkscape:window-maximized="1"
     inkscape:current-layer="svg269" />
  <path
     d="M46.137,6.552c-0.75-0.636-1.928-0.727-3.146-0.238l-0.002,0C41.708,6.828,6.728,21.832,5.304,22.445 c-0.259,0.09-2.521,0.934-2.288,2.814c0.208,1.695,2.026,2.397,2.248,2.478l8.893,3.045c0.59,1.964,2.765,9.21,3.246,10.758 c0.3,0.965,0.789,2.233,1.646,2.494c0.752,0.29,1.5,0.025,1.984-0.355l5.437-5.043l8.777,6.845l0.209,0.125 c0.596,0.264,1.167,0.396,1.712,0.396c0.421,0,0.825-0.079,1.211-0.237c1.315-0.54,1.841-1.793,1.896-1.935l6.556-34.077 C47.231,7.933,46.675,7.007,46.137,6.552z M22,32l-3,8l-3-10l23-17L22,32z"
     id="path267" />
  <path
     style="fill:#ffffff;stroke-width:0.058709"
     d="m 36.592227,45.92422 c -0.3785,-0.06373 -0.845299,-0.218933 -1.13801,-0.378363 -0.133827,-0.07289 -2.210577,-1.666647 -4.615002,-3.541681 l -4.37168,-3.409152 -2.727666,2.537189 c -3.175459,2.953713 -3.167825,2.948144 -4.039103,2.9465 -0.440478,-8.33e-4 -0.576835,-0.02417 -0.784662,-0.134313 -0.48586,-0.257488 -0.889943,-0.813013 -1.241895,-1.707332 -0.130876,-0.332559 -0.84224,-2.65878 -2.492745,-8.151488 C 14.643805,32.296307 14.183638,30.811018 14.15887,30.784937 14.134102,30.758857 12.055659,30.031911 9.540109,29.169503 6.497089,28.126261 4.8529341,27.53399 4.6274033,27.399806 3.2773146,26.596544 2.7059019,25.257992 3.2329198,24.133183 3.4401481,23.690899 4.0437584,23.101292 4.5749186,22.822319 4.9169168,22.642698 36.076314,9.2704547 41.480164,6.9842118 43.735055,6.03022 44.195329,5.9143129 45.033743,6.0893437 c 0.972836,0.2030935 1.616081,0.8355429 1.830458,1.7997399 0.165087,0.7425038 0.193749,0.5799391 -3.306173,18.7521824 l -3.324727,17.262603 -0.260202,0.418194 c -0.754002,1.211827 -2.050418,1.826184 -3.380872,1.602157 z m -16.047777,-9.954898 1.478725,-3.948614 8.451528,-9.445289 c 4.64834,-5.19491 8.474312,-9.482338 8.502159,-9.527618 0.03772,-0.06133 0.02963,-0.06948 -0.0317,-0.03196 -0.156919,0.096 -22.767448,16.807038 -22.868052,16.901368 -0.09517,0.08923 -0.01369,0.386072 1.392145,5.072149 0.821275,2.737555 1.493227,4.991453 1.493227,5.008661 0,0.158062 0.303571,-0.615024 1.581965,-4.028697 z"
     id="path348" />
</svg>
