<?xml version="1.0" encoding="UTF-8" standalone="no"?>
<svg
   width="60px"
   height="60px"
   viewBox="0 0 60 60"
   version="1.1"
   id="svg1400"
   sodipodi:docname="kcc-white.svg"
   inkscape:version="1.1 (c4e8f9ed74, 2021-05-24)"
   xmlns:inkscape="http://www.inkscape.org/namespaces/inkscape"
   xmlns:sodipodi="http://sodipodi.sourceforge.net/DTD/sodipodi-0.dtd"
   xmlns="http://www.w3.org/2000/svg"
   xmlns:svg="http://www.w3.org/2000/svg"
   xmlns:rdf="http://www.w3.org/1999/02/22-rdf-syntax-ns#"
   xmlns:cc="http://creativecommons.org/ns#"
   xmlns:dc="http://purl.org/dc/elements/1.1/">
  <defs
     id="defs1404" />
  <sodipodi:namedview
     id="namedview1402"
     pagecolor="#ffffff"
     bordercolor="#999999"
     borderopacity="1"
     inkscape:pageshadow="0"
     inkscape:pageopacity="0"
     inkscape:pagecheckerboard="0"
     showgrid="false"
     inkscape:zoom="14.216667"
     inkscape:cx="15.580305"
     inkscape:cy="30.03517"
     inkscape:window-width="1920"
     inkscape:window-height="1013"
     inkscape:window-x="0"
     inkscape:window-y="28"
     inkscape:window-maximized="1"
     inkscape:current-layer="编组-2备份-3" />
  <title
     id="title1376">编组 2备份 3</title>
  <g
     id="页面-1"
     stroke="none"
     stroke-width="1"
     fill="none"
     fill-rule="evenodd">
    <g
       id="区块链浏览器首页-无右侧广告"
       transform="translate(-56.000000, -276.000000)">
      <g
         id="编组-2备份-3"
         transform="translate(56.000000, 276.000000)">
        <g
           id="KuCoin-Community-Chain_Icon备份"
           transform="translate(11.000000, 12.000000)"
           fill="#38DDA6"
           fill-rule="nonzero">
          <polygon
             id="路径"
             points="33.5747382 20.5844219 29.8458959 27.1932642 24.5406326 18.0378955 29.7701064 8.85221088 33.5292645 15.3852638 37.8644226 15.3852638 36.8185278 13.61179 36.8185278 13.5814742 30.9221065 3.71368436 30.8917907 3.74400015 30.709896 3.38021066 28.5423169 3.38021066 20.2206324 18.0682112 28.678738 32.6652645 30.846317 32.6652645 30.8917907 32.589475 37.8947383 20.5844219" />
          <polygon
             id="polygon1380"
             points="17.9469481 16.7343165 26.4656853 2.16757903 25.2833694 0.136421058 13.475369 0.136421058 13.2783163 0.166736849 11.3987373 0.136421058 12.4143163 2.01600008 13.4147374 3.910737 21.1301061 3.88042121 15.7945269 13.0054742 5.22947389 13.0054742 9.12505299 6.33600025 7.821474 4.2138949 6.91200027 2.71326327 0.197052639 14.5212637 0 14.8850532 1.07621057 16.7343165" />
          <path
             d="M10.2618951,8.95831615 C10.2922109,8.98863194 10.3225267,8.98863194 10.3376846,9.01894773 C10.3680004,9.04926352 10.3680004,9.04926352 10.3983162,9.07957931 C10.4589478,9.1098951 10.4741057,9.14021089 10.5347373,9.15536878 C11.1107373,9.4282109 12.0050531,9.35242142 12.8538952,8.95831615 L12.884211,8.95831615 C12.9600005,8.92800035 13.0509479,8.88252667 13.1267374,8.85221088 C13.2025268,8.82189509 13.2631584,8.7764214 13.3541058,8.71578982 C13.4298953,8.65515824 13.5208426,8.60968455 13.5966321,8.54905297 C13.6724216,8.48842139 13.7330532,8.4429477 13.7936848,8.41263191 L13.8543163,8.38231612 C13.9149479,8.35200033 13.9604216,8.30652665 13.9907374,8.24589506 C14.0210532,8.21557927 14.0210532,8.21557927 14.051369,8.18526348 C14.0816848,8.15494769 14.1271585,8.10947401 14.1574742,8.07915822 C14.18779,8.04884243 14.2181058,8.01852663 14.2332637,8.00336874 C14.2484216,7.98821084 14.3090532,7.92757926 14.339369,7.89726347 C14.3696848,7.86694768 14.3696848,7.86694768 14.4000006,7.83663189 C14.4303164,7.77600031 14.47579,7.76084241 14.5061058,7.70021083 L14.5667374,7.63957925 C14.5970532,7.60926346 14.627369,7.56378977 14.6425269,7.50315819 C14.6425269,7.50315819 14.6425269,7.50315819 14.6425269,7.4728424 L14.6728427,7.41221082 C14.7031585,7.35157924 14.7486322,7.27578976 14.778948,7.21515818 C14.8092637,7.1545266 14.8395795,7.10905291 14.8547374,7.01810554 L14.8850532,6.98778975 C14.8850532,6.95747396 14.915369,6.92715817 14.915369,6.92715817 C14.915369,6.89684238 14.915369,6.89684238 14.9456848,6.86652659 C14.9456848,6.80589501 14.9760006,6.79073711 14.9760006,6.76042132 C14.9760006,6.69978974 15.0063164,6.69978974 15.0063164,6.68463184 C15.0063164,6.66947395 15.0063164,6.62400026 15.0063164,6.62400026 C15.0063164,6.56336868 15.0063164,6.54821079 15.0063164,6.517895 L15.0063164,6.45726341 C15.0063164,6.39663183 15.0063164,6.38147394 15.0063164,6.32084236 C15.0063164,6.29052657 15.0063164,6.29052657 15.0063164,6.26021078 C15.0063164,6.22989498 15.0063164,6.19957919 15.0063164,6.19957919 C15.0063164,6.1692634 15.0063164,6.1692634 15.0063164,6.13894761 L15.0063164,6.10863182 C15.0063164,6.04800024 14.9760006,6.03284234 14.9456848,5.97221076 C14.915369,5.91157918 14.8850532,5.89642129 14.8698953,5.83578971 C14.627369,5.44168443 14.1574742,5.25978968 13.5360005,5.25978968 C13.2631584,5.25978968 12.9296847,5.32042126 12.596211,5.39621074 C12.2324215,5.50231601 11.8989478,5.63873707 11.5654741,5.83578971 C10.6560004,6.38147394 10.0193688,7.18484239 9.91326355,7.97305295 C9.85263197,8.30652665 9.94357934,8.60968455 10.140632,8.83705298 C10.1861057,8.88252667 10.2315794,8.94315825 10.2618951,8.95831615 Z"
             id="path1382" />
          <path
             d="M13.9755795,9.18568458 C13.89979,9.24631616 13.8088427,9.29178984 13.7330532,9.35242142 C13.6572637,9.41305301 13.5663163,9.4282109 13.4905269,9.48884248 L13.4602111,9.48884248 C13.4298953,9.51915827 13.3995795,9.51915827 13.3844216,9.54947406 C13.32379,9.57978985 13.3086321,9.61010565 13.2480005,9.61010565 L13.1873689,9.61010565 C13.1570532,9.61010565 13.1267374,9.64042144 13.1267374,9.64042144 C13.0661058,9.67073723 13.0206321,9.70105302 12.9600005,9.70105302 L12.8993689,9.73136881 C12.8993689,9.73136881 12.8993689,9.73136881 12.8690531,9.73136881 C12.8387374,9.73136881 12.8084216,9.7616846 12.7932637,9.7616846 C12.7326321,9.79200039 12.6871584,9.79200039 12.6568426,9.82231618 L12.596211,9.85263197 L12.5810531,9.85263197 C12.5204216,9.88294776 12.4749479,9.88294776 12.4446321,9.91326355 C12.4143163,9.91326355 12.3840005,9.94357934 12.3688426,9.94357934 L12.3385268,9.94357934 C12.2778952,9.94357934 12.2627373,9.97389513 12.2021057,9.97389513 C12.17179,9.97389513 12.1263163,9.97389513 12.0960005,10.0042109 L12.0656847,10.0042109 C12.0353689,10.0042109 12.0050531,10.0042109 11.9898952,10.0042109 C11.9747373,10.0042109 11.9292636,10.0042109 11.9292636,10.0042109 C11.8534742,10.0042109 11.732211,10.0345267 11.6564215,10.0345267 L11.6261057,10.0345267 C11.5503162,10.0345267 11.4593689,10.0345267 11.3987373,10.0345267 C11.3684215,10.0345267 11.3381057,10.0345267 11.3381057,10.0345267 L11.3077899,10.0345267 C11.2471583,10.0345267 11.2016847,10.0345267 11.1410531,10.0042109 C11.1107373,10.0042109 11.0804215,10.0042109 11.0652636,9.97389513 C11.004632,9.97389513 10.9591583,9.94357934 10.8985267,9.94357934 C10.868211,9.94357934 10.8378952,9.91326355 10.8227373,9.91326355 L12.2778952,12.2778952 L15.4307375,12.2475794 L17.0677902,9.33726353 L15.5974743,6.92715817 C15.5974743,6.95747396 15.5974743,6.98778975 15.5671585,7.00294765 C15.5671585,7.03326344 15.5671585,7.03326344 15.5671585,7.06357923 C15.5671585,7.09389502 15.5368427,7.12421081 15.5368427,7.1696845 C15.5065269,7.20000029 15.5065269,7.23031608 15.5065269,7.23031608 C15.5065269,7.29094766 15.4762111,7.30610555 15.4458954,7.36673713 C15.4458954,7.39705293 15.4458954,7.39705293 15.4155796,7.42736872 C15.3852638,7.50315819 15.354948,7.56378977 15.3397901,7.65473715 C15.0821059,8.24589506 14.5818953,8.7764214 13.9755795,9.18568458 Z"
             id="path1384" />
          <path
             d="M30.5886328,20.6147377 C30.6492644,20.6450535 30.6644223,20.6753692 30.7250539,20.6905271 C30.7250539,20.6905271 30.7553696,20.7208429 30.7856854,20.7208429 C30.8160012,20.7208429 30.846317,20.7511587 30.8614749,20.7511587 C30.9221065,20.7511587 30.9675802,20.7814745 31.0282118,20.7814745 C31.3313697,20.8421061 31.6042118,20.7208429 31.8922118,20.5086324 C32.4682118,20.0084218 32.8320013,19.0383165 32.8320013,17.9924218 C32.8320013,17.5983165 32.7713697,17.2496849 32.6955802,16.8858954 C32.6197908,16.5524217 32.4682118,16.2492638 32.3317908,16.0067375 C32.0286329,15.4762111 31.6193697,15.1730532 31.1191591,15.203369 C31.0585275,15.203369 31.0130539,15.203369 30.9524223,15.203369 C30.8917907,15.203369 30.8766328,15.2336848 30.8160012,15.2336848 L30.7856854,15.2336848 C30.7856854,15.2640006 30.7553696,15.2640006 30.7553696,15.2640006 C30.7250539,15.2640006 30.7250539,15.2943164 30.6947381,15.2943164 C30.6644223,15.3246322 30.6644223,15.3246322 30.6341065,15.3246322 C30.6037907,15.3246322 30.558317,15.354948 30.5280012,15.3852638 L30.4673696,15.4155796 C30.4370538,15.4458954 30.4067381,15.4762111 30.3915802,15.491369 C30.3612644,15.5216848 30.3612644,15.5216848 30.3309486,15.5520006 C30.3309486,15.5520006 30.3006328,15.5823164 30.270317,15.6126322 C30.2400012,15.642948 30.2096854,15.6732638 30.1945275,15.6884217 C30.1945275,15.7187375 30.1642117,15.7187375 30.1642117,15.7490533 C30.1338959,15.779369 30.1338959,15.779369 30.1035801,15.8096848 L30.0732644,15.8400006 C30.0429486,15.9006322 29.9974749,15.9461059 29.9671591,16.0067375 C29.9368433,16.0673691 29.8913696,16.1431585 29.8610538,16.2037901 L29.830738,16.2644217 C29.830738,16.2947375 29.830738,16.2947375 29.830738,16.2947375 C29.830738,16.3553691 29.8004222,16.370527 29.7701064,16.4311585 L29.7397907,16.506948 C29.7094749,16.5675796 29.7094749,16.6130533 29.6791591,16.6736849 C29.6791591,16.6736849 29.6488433,16.7040007 29.6488433,16.7343165 C29.6185275,16.794948 29.6185275,16.8404217 29.5882117,16.9010533 C29.5882117,16.9616849 29.5578959,16.9768428 29.5578959,17.0374744 C29.5578959,17.0981059 29.5275801,17.1435796 29.5275801,17.2042112 C29.5275801,17.234527 29.5275801,17.2648428 29.5275801,17.2800007 C29.5275801,17.3406323 29.4972643,17.4164217 29.4972643,17.4770533 L29.4972643,17.5376849 C29.4669485,17.6134744 29.4669485,17.7044218 29.4669485,17.7802112 C29.4669485,17.8560007 29.4669485,17.9772639 29.4669485,18.0530533 C29.4669485,18.1288428 29.4669485,18.2197902 29.4669485,18.2955797 C29.4669485,18.3713692 29.4972643,18.4623165 29.4972643,18.538106 L29.4972643,18.5684218 C29.6488433,19.4778955 30.0732644,20.2509482 30.5886328,20.6147377 Z"
             id="path1386" />
          <path
             d="M29.7701064,15.1275795 L26.9507379,15.1275795 L25.3136852,18.0378955 L26.9507379,20.7511587 L29.7701064,20.7511587 C29.7397907,20.7208429 29.7397907,20.7208429 29.7094749,20.6905271 C29.6791591,20.6602113 29.6488433,20.6298956 29.6033696,20.5844219 C29.5730538,20.5844219 29.5730538,20.5541061 29.542738,20.5237903 C29.4821064,20.4631587 29.4669485,20.4480008 29.4366327,20.3873692 L29.406317,20.3570534 C29.406317,20.3267376 29.3760012,20.3267376 29.3760012,20.2964219 C29.3456854,20.2357903 29.3153696,20.1903166 29.2698959,20.0993692 L29.2395801,20.0690534 C29.2092643,19.993264 29.1637906,19.9023166 29.1334748,19.8265271 C29.1334748,19.8265271 29.1031591,19.7962113 29.1031591,19.7658955 C29.1031591,19.7355797 29.0728433,19.7052639 29.0728433,19.690106 L29.0728433,19.6597903 C29.0728433,19.5991587 29.0425275,19.5840008 29.0425275,19.553685 C29.0122117,19.4930534 29.0122117,19.4778955 28.9818959,19.4172639 L28.9818959,19.3869481 C28.9818959,19.3566323 28.9515801,19.3263166 28.9515801,19.3111587 C28.9515801,19.2808429 28.9212643,19.2353692 28.9212643,19.1747376 L28.9212643,19.1444218 L28.8909485,19.0837902 C28.8909485,19.0231587 28.8606327,18.977685 28.8606327,18.9170534 C28.8303169,18.8867376 28.8303169,18.8564218 28.8303169,18.8412639 C28.8303169,18.826106 28.8303169,18.8109481 28.8303169,18.8109481 L28.8303169,18.7503165 C28.8303169,18.689685 28.8000011,18.6442113 28.8000011,18.5835797 C28.8000011,18.5532639 28.8000011,18.5229481 28.8000011,18.5077902 L28.8000011,18.4774744 C28.8000011,18.4471586 28.8000011,18.4016849 28.8000011,18.3410534 C28.8000011,18.2804218 28.8000011,18.2652639 28.8000011,18.2349481 L28.8000011,18.2046323 C28.8000011,18.1288428 28.8000011,18.0075797 28.8000011,17.9317902 C28.8000011,17.8560007 28.8000011,17.7650533 28.8000011,17.6589481 C28.8606327,16.9162112 29.0425275,16.218948 29.3760012,15.6884217 C29.4366327,15.6277901 29.4517906,15.5520006 29.5124222,15.491369 C29.5124222,15.4610532 29.542738,15.4610532 29.542738,15.4307375 C29.5730538,15.4004217 29.6033696,15.354948 29.6185275,15.3246322 C29.6488433,15.2640006 29.6791591,15.2640006 29.6488433,15.2185269 L29.6791591,15.1882111 C29.7397907,15.1578953 29.7397907,15.1578953 29.7701064,15.1275795 Z"
             id="path1388" />
          <path
             d="M12.6113689,30.6189486 C12.9448426,30.6947381 13.2783163,30.7553696 13.5511584,30.7553696 C14.1574742,30.7856854 14.627369,30.558317 14.8850532,30.2096854 C14.915369,30.1490538 14.9456848,30.1338959 14.9608427,30.0732644 C14.9911585,30.0126328 15.0214743,29.9974749 15.0214743,29.9368433 L15.0214743,29.9065275 C15.0214743,29.8762117 15.0214743,29.8762117 15.0214743,29.8458959 C15.0214743,29.8458959 15.0214743,29.8155801 15.0214743,29.7852643 C15.0214743,29.7549486 15.0214743,29.7549486 15.0214743,29.7246328 C15.0214743,29.6640012 15.0214743,29.6488433 15.0214743,29.5882117 L15.0214743,29.5275801 C15.0214743,29.4972643 15.0214743,29.4669485 15.0214743,29.4214749 C15.0214743,29.4214749 15.0214743,29.3911591 15.0214743,29.3608433 C15.0214743,29.3305275 14.9911585,29.3305275 14.9911585,29.2850538 C14.9911585,29.254738 14.9608427,29.2244222 14.9608427,29.1789485 C14.9305269,29.1486327 14.9305269,29.1486327 14.9305269,29.1183169 C14.9305269,29.1183169 14.9002111,29.0880012 14.9002111,29.0576854 L14.8698953,29.0273696 C14.8395795,28.9515801 14.8092637,28.8909485 14.7941059,28.8303169 C14.7637901,28.7696854 14.7183164,28.6938959 14.6880006,28.6332643 L14.6576848,28.5726327 L14.6576848,28.5423169 C14.627369,28.4816853 14.5970532,28.4665274 14.5818953,28.4058959 L14.5212637,28.3452643 C14.4909479,28.2846327 14.4454743,28.2694748 14.4151585,28.2088432 C14.3848427,28.1785274 14.3848427,28.1785274 14.3545269,28.1482116 C14.3242111,28.1178959 14.2787374,28.0724222 14.2484216,28.0421064 C14.2181058,28.0117906 14.18779,27.9814748 14.1726321,27.9663169 C14.1574742,27.951159 14.0968427,27.8905274 14.0665269,27.8602116 C14.0362111,27.8298958 14.0362111,27.8298958 14.0058953,27.7995801 C13.9755795,27.7389485 13.9301058,27.6934748 13.8694742,27.663159 L13.8088427,27.6328432 C13.7482111,27.6025274 13.7027374,27.5570537 13.61179,27.4964221 C13.5208426,27.4357906 13.4450532,27.3903169 13.3692637,27.3296853 C13.2934742,27.2690537 13.2328426,27.22358 13.1418953,27.1932642 C13.0661058,27.1629484 12.9751584,27.1174748 12.8993689,27.087159 L12.8690531,27.0568432 C12.0050531,26.6627379 11.1258952,26.5869484 10.5498952,26.8597905 C10.4892636,26.8901063 10.4741057,26.9204221 10.4134741,26.93558 C10.3831583,26.9658958 10.3831583,26.9658958 10.3528425,26.9962116 C10.3225267,27.0265274 10.2922109,27.0265274 10.277053,27.0568432 C10.2618951,27.087159 10.2012636,27.1326327 10.1709478,27.1629484 C9.97389513,27.3903169 9.89810566,27.6934748 9.94357934,28.0269485 C10.0496846,28.8000011 10.6863162,29.6033696 11.5957899,30.1642117 C11.9141057,30.3764223 12.2475794,30.5128433 12.6113689,30.6189486 Z"
             id="path1390" />
          <path
             d="M15.5974743,29.0728433 L17.0677902,26.6627379 L15.4307375,23.752422 L12.2778952,23.7221062 L10.8075794,26.1322116 C10.8378952,26.1322116 10.868211,26.1018958 10.8833689,26.1018958 C10.9440004,26.1018958 10.9894741,26.07158 11.0501057,26.07158 C11.0804215,26.0412642 11.1107373,26.0412642 11.1258952,26.0412642 C11.1865268,26.0109484 11.2320004,26.0109484 11.292632,26.0109484 L11.3229478,26.0109484 C11.3229478,26.0109484 11.3532636,26.0109484 11.3835794,26.0109484 C11.444211,26.0109484 11.5200005,26.0109484 11.6109478,26.0109484 L11.6412636,26.0109484 C11.7170531,26.0109484 11.8383163,26.0412642 11.9141057,26.0412642 C11.9141057,26.0412642 11.9444215,26.0412642 11.9747373,26.0412642 C12.0050531,26.07158 12.0353689,26.07158 12.0505268,26.07158 L12.0808426,26.07158 C12.1111584,26.1018958 12.1566321,26.1018958 12.1869479,26.1018958 C12.2475794,26.1018958 12.2627373,26.1322116 12.3233689,26.1322116 L12.3536847,26.1322116 C12.3840005,26.1322116 12.4143163,26.1625274 12.4294742,26.1625274 C12.45979,26.1928431 12.5052637,26.1928431 12.5658952,26.2231589 L12.596211,26.2231589 L12.6568426,26.2534747 C12.6871584,26.2837905 12.7326321,26.2837905 12.7932637,26.3141063 C12.8235795,26.3141063 12.8538952,26.3444221 12.8690531,26.3444221 C12.884211,26.3444221 12.8993689,26.3444221 12.8993689,26.3444221 L12.9600005,26.3747379 C13.0206321,26.3747379 13.0661058,26.4050537 13.1267374,26.4353695 C13.1267374,26.4353695 13.1570532,26.4656853 13.1873689,26.4656853 L13.2176847,26.4656853 C13.2783163,26.4656853 13.2934742,26.4960011 13.3541058,26.5263168 C13.3844216,26.5566326 13.4147374,26.5566326 13.4298953,26.5869484 L13.4602111,26.5869484 C13.5360005,26.64758 13.6269479,26.6627379 13.7027374,26.7233695 C13.7785269,26.7840011 13.8694742,26.8294748 13.9452637,26.8901063 C14.5515795,27.2993695 15.0517901,27.8298958 15.3246322,28.4058959 C15.354948,28.4816853 15.3852638,28.5423169 15.4004217,28.6332643 C15.4307375,28.6635801 15.4307375,28.6635801 15.4307375,28.6938959 C15.4610532,28.7545275 15.491369,28.7696854 15.491369,28.8303169 C15.491369,28.8303169 15.491369,28.8606327 15.5216848,28.8606327 C15.5216848,28.9212643 15.5520006,28.9364222 15.5520006,28.966738 C15.5520006,28.9970538 15.5520006,28.9970538 15.5520006,29.0273696 C15.5974743,29.0122117 15.5974743,29.0425275 15.5974743,29.0728433 Z"
             id="path1392" />
          <polygon
             id="polygon1394"
             points="1.07621057 19.3111587 0 21.1604219 0.197052639 21.5242114 6.91200027 33.3322119 9.12505299 29.7094749 5.22947389 23.0400009 15.7945269 23.0400009 21.1301061 32.1953697 13.4147374 32.1650539 12.2324215 34.3781066 11.3987373 35.9393698 13.475369 35.9090541 25.2833694 35.9393698 26.4656853 33.893054 17.9469481 19.3111587" />
        </g>
        <path
           style="fill:#ffffff;stroke-width:0.0704507"
           d="m 21.761067,21.209794 c -0.293505,-0.08877 -0.608589,-0.355495 -0.735237,-0.622388 -0.268352,-0.565508 0.09945,-1.490295 0.875547,-2.201448 1.571832,-1.440298 4.089244,-1.44352 4.089244,-0.0052 0,0.502601 -0.39984,1.249307 -0.937717,1.751201 -0.911313,0.850347 -2.415582,1.3429 -3.291837,1.077869 z"
           id="path1904" />
        <path
           style="fill:#ffffff;stroke-width:0.0704507"
           d="M 22.754982,23.37487 C 22.46483,22.902325 22.158851,22.402876 22.075029,22.264984 l -0.152404,-0.250713 0.504103,0.02424 c 0.544643,0.02619 0.833186,-0.02824 1.490382,-0.281144 1.249393,-0.480787 2.123963,-1.281964 2.538731,-2.325683 0.07297,-0.183618 0.15129,-0.33397 0.174048,-0.334115 0.02276,-1.45e-4 0.348479,0.504696 0.723824,1.121869 l 0.682446,1.122131 -0.805402,1.427693 -0.805401,1.427692 -1.571412,0.01854 -1.571412,0.01855 z"
           id="path1943" />
        <path
           style="fill:#ffffff;stroke-width:0.0704507"
           d="m 11.562249,27.802045 c -0.472811,-0.819261 -0.525845,-0.94596 -0.448443,-1.071339 0.04828,-0.07821 1.568384,-2.753566 3.378006,-5.945243 1.809622,-3.191676 3.32502,-5.840844 3.367552,-5.887038 0.05781,-0.06278 0.349562,0.360471 1.155545,1.676364 l 1.078217,1.760355 -1.812778,3.106754 c -0.997028,1.708714 -1.873218,3.209826 -1.94709,3.335803 l -0.134313,0.229048 5.324626,-0.01803 5.324627,-0.01803 2.631001,-4.499673 c 1.44705,-2.47482 2.631,-4.524352 2.631,-4.554514 0,-0.03016 -1.733001,-0.05606 -3.851113,-0.05756 l -3.851114,-0.0027 -0.94959,-1.794898 C 22.936108,13.07415 22.500604,12.243655 22.490595,12.2158 c -0.01001,-0.02786 3.07938,-0.06075 6.865309,-0.0731 l 6.883507,-0.02246 0.573143,0.980351 c 0.315229,0.539193 0.573144,1.018407 0.573144,1.06492 0,0.04651 -1.905828,3.343428 -4.235173,7.326477 l -4.235171,7.241907 -8.408439,-0.0013 -8.408439,-0.0013 z"
           id="path1982" />
        <path
           style="fill:#ffffff;stroke-width:0.0704507"
           d="m 22.49297,47.843822 c 0.01052,-0.03174 0.445694,-0.86163 0.967061,-1.844207 l 0.947941,-1.786504 3.858639,-0.0022 c 3.645459,-0.0021 3.856033,-0.009 3.811463,-0.125313 -0.02595,-0.0677 -1.224135,-2.140973 -2.662642,-4.607268 l -2.615467,-4.484176 h -5.2933 c -2.911315,0 -5.2933,0.01696 -5.2933,0.03769 0,0.02073 0.873371,1.531529 1.940824,3.357327 1.794186,3.06882 1.933692,3.331183 1.846425,3.472468 -0.05192,0.08406 -0.537542,0.88124 -1.07916,1.771516 -0.541618,0.890274 -1.005634,1.59763 -1.031146,1.571902 -0.08486,-0.08558 -6.762885,-11.860436 -6.793965,-11.979288 -0.0168,-0.06425 0.201189,-0.515629 0.484425,-1.00306 l 0.514974,-0.886236 h 8.417725 8.417724 l 4.227253,7.237366 c 2.32499,3.980551 4.225662,7.280375 4.223718,7.332942 -0.0019,0.05257 -0.251486,0.522892 -0.554535,1.045166 l -0.550998,0.94959 h -6.901391 c -3.795764,0 -6.892785,-0.02597 -6.882268,-0.0577 z"
           id="path2021" />
        <path
           style="fill:#ffffff;stroke-width:0.0704507"
           d="m 26.328629,40.416735 c -0.433869,-0.91164 -1.32492,-1.679223 -2.446528,-2.107524 -0.741987,-0.283339 -1.379746,-0.394762 -1.720689,-0.300623 -0.142592,0.03937 -0.249376,0.04554 -0.237299,0.01372 0.01208,-0.03183 0.322663,-0.552528 0.690189,-1.157113 l 0.66823,-1.099245 1.571412,0.01855 1.571412,0.01855 0.805947,1.428659 0.805947,1.428658 -0.647396,1.068411 c -0.356068,0.587626 -0.682034,1.105673 -0.724369,1.151215 -0.05719,0.06152 -0.143777,-0.05756 -0.336856,-0.463256 z"
           id="path2060" />
        <path
           style="fill:#ffffff;stroke-width:0.0704507"
           d="m 23.682809,42.589099 c -1.116707,-0.292546 -2.082393,-1.066806 -2.528127,-2.026982 -0.555897,-1.197482 0.239867,-2.027078 1.70581,-1.778336 0.836081,0.141867 1.93547,0.749965 2.459,1.360131 0.378845,0.441538 0.671129,1.11471 0.671129,1.545707 0,0.316891 -0.02853,0.383599 -0.26536,0.620428 -0.440412,0.440412 -1.088506,0.528959 -2.042452,0.279052 z"
           id="path2099" />
        <path
           style="fill:#ffffff;stroke-width:0.0704507"
           d="m 35.462943,37.345353 -4.208805,-7.278716 4.138465,-7.311546 4.138464,-7.311546 1.090269,6.08e-4 1.09027,6.09e-4 0.186727,0.296376 c 0.534197,0.847888 6.278232,10.50364 6.860887,11.533188 0.01642,0.02902 -0.929514,0.05244 -2.102079,0.05206 l -2.131936,-6.92e-4 -1.85913,-3.234947 c -1.022523,-1.779221 -1.877154,-3.234063 -1.89918,-3.232983 -0.05084,0.0025 -5.249537,9.14772 -5.232757,9.205141 0.023,0.0787 5.227352,9.038559 5.281546,9.092752 0.02945,0.02945 0.891972,-1.432839 1.916707,-3.249541 l 1.863154,-3.303094 2.131771,-2.11e-4 2.131771,-2.11e-4 -0.178575,0.298945 c -0.09822,0.16442 -1.674747,2.869453 -3.503401,6.011186 l -3.324825,5.712217 -1.09027,-4.22e-4 -1.090269,-4.22e-4 -4.208804,-7.278717 z"
           id="path2138" />
        <path
           style="fill:#ffffff;stroke-width:0.0704507"
           d="m 41.528695,32.514654 c -0.383827,-0.293109 -0.796038,-1.044691 -0.949894,-1.731933 -0.284409,-1.270392 0.240979,-3.01385 1.03139,-3.422587 0.255598,-0.132175 0.789852,-0.132931 1.044056,-0.0015 1.13253,0.585654 1.503067,3.023706 0.684727,4.505351 -0.319691,0.578817 -0.719526,0.87925 -1.170158,0.87925 -0.276151,0 -0.397525,-0.04335 -0.640121,-0.228605 z"
           id="path2177" />
        <path
           style="fill:#ffffff;stroke-width:0.0704507"
           d="m 37.249278,31.529662 c -0.403869,-0.667222 -0.77269,-1.276438 -0.819602,-1.353812 -0.07477,-0.123319 0.01254,-0.314286 0.707453,-1.54748 l 0.792746,-1.406799 1.345731,-0.0191 c 0.740152,-0.01051 1.34573,-0.0042 1.34573,0.01406 0,0.01824 -0.111349,0.216757 -0.247443,0.441144 -0.39253,0.64719 -0.536865,1.197196 -0.577769,2.201647 -0.03139,0.770981 -0.01646,0.944211 0.121247,1.4068 0.189539,0.636675 0.376872,1.02495 0.619354,1.283704 l 0.181271,0.193435 -1.367204,-2.32e-4 -1.367205,-2.32e-4 z"
           id="path2216" />
      </g>
    </g>
  </g>
  <metadata
     id="metadata2351">
    <rdf:RDF>
      <cc:Work
         rdf:about="">
        <dc:title>编组 2备份 3</dc:title>
      </cc:Work>
    </rdf:RDF>
  </metadata>
</svg>
